<?xml version="1.0" encoding="UTF-8" standalone="no"?>
<svg
   version="1.0"
   width="1024.000000pt"
   height="1024.000000pt"
   viewBox="0 0 1024.000000 1024.000000"
   preserveAspectRatio="xMidYMid meet"
   id="svg3206"
   sodipodi:docname="logoNew.svg"
   inkscape:version="1.2.2 (b0a8486541, 2022-12-01)"
   xmlns:inkscape="http://www.inkscape.org/namespaces/inkscape"
   xmlns:sodipodi="http://sodipodi.sourceforge.net/DTD/sodipodi-0.dtd"
   xmlns:xlink="http://www.w3.org/1999/xlink"
   xmlns="http://www.w3.org/2000/svg"
   xmlns:svg="http://www.w3.org/2000/svg">
   <rect width="100%" height="100%" fill="#ffffff"/>
  <defs
     id="defs3210">
    <linearGradient
       id="linearGradient4608"
       inkscape:swatch="solid">
      <stop
         style="stop-color:#000000;stop-opacity:1;"
         offset="0"
         id="stop4606" />
    </linearGradient>
    <linearGradient
       inkscape:collect="always"
       xlink:href="#linearGradient4608"
       id="linearGradient4610"
       x1="4270.3805"
       y1="5620.125"
       x2="5278.4657"
       y2="5620.125"
       gradientUnits="userSpaceOnUse" />
  </defs>
  <sodipodi:namedview
     id="namedview3208"
     pagecolor="#ffffff"
     bordercolor="#000000"
     borderopacity="0.25"
     inkscape:showpageshadow="2"
     inkscape:pageopacity="0.0"
     inkscape:pagecheckerboard="0"
     inkscape:deskcolor="#d1d1d1"
     inkscape:document-units="pt"
     showgrid="false"
     inkscape:zoom="0.42773438"
     inkscape:cx="569.27853"
     inkscape:cy="682.66666"
     inkscape:window-width="1440"
     inkscape:window-height="828"
     inkscape:window-x="0"
     inkscape:window-y="0"
     inkscape:window-maximized="1"
     inkscape:current-layer="g3204" />
  <g
     transform="translate(0.000000,1024.000000) scale(0.100000,-0.100000)"
     fill="#000000"
     stroke="none"
     id="g3204">
    <path
       d="M2406 7385 c-49 -17 -93 -59 -117 -110 -36 -77 -18 -158 47 -224 l44 -44 0 -757 c0 -679 2 -761 17 -806 38 -114 85 -159 255 -245 95 -49 137 -76 184 -123 108 -109 134 -190 134 -428 0 -92 4 -178 10 -193 12 -31 69 -58 105 -49 14 3 34 18 45 31 18 23 20 41 20 204 0 206 -13 287 -65 395 -68 142 -172 238 -342 320 -105 51 -160 93 -179 141 -11 26 -14 174 -14 777 l0 744 24 15 c31 20 66 78 77 125 20 92 -47 206 -136 231 -50 14 -61 13 -109 -4z"
       id="path3164"
       style="fill:#0000ff" />
    <path
       d="M1880 7069 c-155 -46 -191 -270 -57 -358 l36 -24 1 -729 c0 -452 4 -746 10 -774 16 -72 65 -157 121 -212 39 -38 93 -72 208 -131 224 -115 250 -148 258 -331 l4 -105 -38 -23 c-21 -13 -50 -40 -65 -61 -129 -180 37 -430 246 -371 181 50 226 313 72 422 l-46 32 0 85 c0 184 -40 304 -129 383 -29 26 -115 78 -210 127 -173 89 -197 109 -240 201 l-26 55 -3 717 -3 717 44 43 c48 49 71 113 61 170 -22 115 -141 197 -244 167z"
       id="path3166"
       style="fill:#0000ff" />
    <path
       d="M2754 6749 c-34 -17 -57 -65 -50 -104 8 -42 44 -71 99 -80 145 -24 369 -124 518 -232 104 -74 269 -245 340 -353 144 -216 227 -456 249 -715 53 -657 -301 -1262 -880 -1502 -330 -138 -685 -147 -1010 -26 -371 138 -674 444 -794 803 -47 141 -66 258 -66 410 0 392 145 701 458 971 47 41 52 50 52 86 0 50 -29 90 -73 98 -44 9 -65 -1 -146 -69 -222 -184 -396 -486 -462 -799 -29 -137 -31 -395 -5 -542 54 -300 194 -563 416 -785 215 -216 468 -353 777 -422 135 -31 491 -33 623 -4 327 71 589 213 820 445 225 226 355 454 435 766 43 170 59 330 52 520 -30 746 -531 1365 -1237 1530 -75 17 -87 17 -116 4z"
       id="path3168"
       style="fill:#0000ff" />
    <path
       d="M2721 6294 c-25 -20 -31 -34 -31 -64 0 -57 28 -84 106 -104 195 -49 382 -177 500 -342 63 -88 129 -234 163 -358 31 -118 49 -144 102 -152 29 -5 41 -1 68 22 33 28 33 29 28 93 -11 130 -90 330 -189 478 -103 153 -283 307 -442 377 -80 35 -211 76 -246 76 -16 0 -42 -11 -59 -26z"
       id="path3170"
       style="fill:#0000ff" />
    <path
       d="M6804 6126 c-55 -55 -43 -125 26 -161 88 -46 184 27 159 120 -13 47 -52 75 -106 75 -38 0 -50 -5 -79 -34z"
       id="path3172"
       style="fill:#0000ff" />
    <path
       d="M8572 6135 c-36 -30 -47 -66 -32 -111 22 -67 94 -93 160 -59 37 19 50 43 50 95 0 89 -107 135 -178 75z"
       id="path3174" />
    <path
       d="M4614 6130 c-251 -80 -391 -353 -329 -643 51 -243 239 -397 484 -397 146 0 247 39 346 132 156 146 207 402 124 624 -48 128 -171 242 -306 284 -87 27 -233 27 -319 0z m279 -193 c60 -25 120 -92 148 -166 27 -71 29 -201 6 -282 -62 -212 -309 -287 -460 -141 -126 121 -142 372 -32 516 73 95 213 126 338 73z"
       id="path3176"
       style="stroke:url(#linearGradient4610);fill:#0000ff" />
    <path
       d="M7112 6023 c26 -99 163 -653 206 -833 l18 -75 114 0 115 0 94 348 c52 191 98 342 102 335 3 -7 51 -165 105 -350 l98 -338 105 0 106 0 84 328 c83 322 166 640 177 675 5 15 -4 17 -99 17 l-104 0 -41 -172 c-23 -95 -63 -263 -90 -373 l-48 -200 -105 370 -105 370 -91 3 -90 3 -17 -63 c-84 -324 -184 -669 -189 -653 -8 29 -167 703 -167 710 0 3 -46 5 -103 5 l-104 0 29 -107z"
       id="path3178" />
    <path
       d="M8930 5620 l0 -510 100 0 100 0 0 205 0 205 195 0 195 0 0 90 0 90 -195 0 -195 0 0 130 0 130 220 0 220 0 0 85 0 85 -320 0 -320 0 0 -510z"
       id="path3180" />
    <path
       d="M6310 5945 l0 -85 -60 0 -60 0 0 -80 0 -80 60 0 60 0 0 -222 c1 -279 11 -312 102 -359 43 -22 156 -35 222 -25 l46 7 0 85 0 84 -73 0 c-109 0 -107 -5 -107 233 l0 197 90 0 90 0 0 80 0 80 -90 0 -90 0 0 85 0 85 -95 0 -95 0 0 -85z"
       id="path3182"
       style="fill:#0000ff" />
    <path
       d="M2713 5880 c-28 -12 -43 -40 -43 -82 0 -47 21 -72 77 -93 63 -24 145 -78 183 -122 17 -19 45 -65 62 -102 72 -158 71 -155 110 -165 87 -22 134 41 103 137 -41 125 -129 257 -216 324 -101 77 -226 124 -276 103z"
       id="path3184"
       style="fill:#0000ff" />
    <path
       d="M5687 5856 c-38 -14 -70 -36 -94 -66 -10 -12 -12 -8 -13 28 l0 42 -95 0 -95 0 0 -515 0 -515 100 0 101 0 -3 170 c-2 94 -2 170 0 170 2 0 20 -14 41 -30 47 -39 88 -50 177 -50 168 0 297 128 326 321 27 179 -48 350 -184 424 -44 24 -67 30 -138 32 -56 2 -98 -2 -123 -11z m130 -161 c74 -31 110 -89 120 -188 14 -150 -62 -257 -183 -257 -64 0 -109 28 -144 90 -22 39 -25 57 -25 140 0 78 4 102 23 137 43 82 126 113 209 78z"
       id="path3186"
       style="fill:#0000ff" />
    <path
       d="M6790 5485 l0 -375 100 0 100 0 0 375 0 375 -100 0 -100 0 0 -375z"
       id="path3188"
       style="fill:#0000ff" />
    <path
       d="M8550 5485 l0 -375 95 0 95 0 0 375 0 375 -95 0 -95 0 0 -375z"
       id="path3190" />
    <path
       d="M4780 4765 c-157 -45 -251 -183 -221 -326 29 -135 93 -182 331 -244 139 -36 178 -57 197 -103 44 -107 -83 -204 -228 -173 -92 20 -125 48 -143 124 -6 27 -6 27 -96 27 -87 0 -90 -1 -90 -23 0 -100 79 -206 186 -248 50 -20 77 -23 184 -23 109 -1 133 2 184 23 117 47 186 148 186 270 0 149 -76 217 -314 280 -183 49 -226 78 -226 153 0 70 77 128 171 128 88 0 173 -53 185 -115 l6 -34 84 -3 84 -3 0 40 c0 94 -81 195 -189 236 -74 28 -215 35 -291 14z"
       id="path3192" />
    <path
       d="M6870 4590 l0 -90 -50 0 -50 0 0 -65 0 -65 50 0 50 0 0 -202 c1 -216 8 -273 42 -321 38 -54 155 -87 252 -73 l46 7 0 67 0 67 -65 0 c-101 0 -99 -4 -103 245 l-3 210 90 0 91 0 0 65 0 65 -90 0 -90 0 0 90 0 90 -85 0 -85 0 0 -90z"
       id="path3194" />
    <path
       d="M6298 4506 c-48 -13 -62 -21 -111 -65 -42 -38 -58 -76 -58 -134 0 -128 53 -176 245 -222 121 -28 142 -39 155 -78 24 -68 -33 -112 -135 -105 -54 3 -68 9 -94 33 -16 16 -30 37 -30 47 0 16 -9 18 -80 18 -76 0 -80 -1 -80 -22 1 -74 83 -164 176 -193 76 -24 199 -17 271 15 116 50 172 171 128 277 -32 77 -89 110 -254 149 -89 21 -115 31 -131 51 -26 33 -25 46 3 79 18 20 35 28 74 31 72 7 120 -11 140 -53 l17 -34 77 0 77 0 -9 43 c-5 23 -18 53 -27 66 -67 92 -218 133 -354 97z"
       id="path3196" />
    <path
       d="M7555 4507 c-112 -38 -188 -106 -226 -206 -32 -80 -32 -232 -1 -312 54 -137 180 -219 337 -219 122 0 219 49 283 144 51 77 46 86 -43 86 -75 0 -76 0 -113 -39 -47 -50 -100 -65 -171 -50 -77 16 -141 91 -141 164 l0 25 256 0 257 0 -6 83 c-9 151 -71 254 -182 306 -62 29 -189 38 -250 18z m185 -139 c44 -23 71 -61 85 -120 l7 -28 -177 0 -177 0 6 31 c16 80 89 139 171 139 23 0 61 -10 85 -22z"
       id="path3198" />
    <path
       d="M8408 4510 c-38 -11 -96 -48 -108 -68 -7 -13 -9 -9 -10 21 l0 37 -80 0 -80 0 0 -355 0 -355 83 0 82 0 0 238 c0 206 2 241 17 269 56 102 184 107 233 8 18 -36 20 -64 23 -277 l4 -238 84 0 84 0 0 238 c0 260 4 283 62 325 34 25 106 27 142 4 59 -39 61 -49 64 -319 l4 -248 84 0 85 0 -3 273 c-3 251 -5 275 -24 317 -27 58 -91 116 -146 131 -100 27 -227 -10 -280 -81 l-21 -29 -39 43 c-57 66 -168 94 -260 66z"
       id="path3200" />
    <path
       d="M5343 4493 c3 -4 57 -141 122 -303 64 -162 125 -315 135 -340 l18 -45 -28 -62 c-34 -73 -73 -103 -137 -103 l-43 0 0 -70 0 -70 68 0 c115 1 187 40 235 128 22 40 327 849 327 867 0 3 -38 5 -85 5 -52 0 -85 -4 -85 -10 0 -15 -152 -453 -160 -463 -4 -5 -50 99 -103 230 l-95 238 -87 3 c-48 1 -85 -1 -82 -5z"
       id="path3202" />
    <path
       d="M8930 5620 l0 -510 100 0 100 0 0 205 0 205 195 0 195 0 0 90 0 90 -195 0 -195 0 0 130 0 130 220 0 220 0 0 85 0 85 -320 0 -320 0 0 -510z"
       id="path6569" />
  </g>
</svg>
